# xmcd CD database file
#
# Track frame offsets:
#	150
#	5702
#	19084
#	34598
#	54153
#	69987
#	84702
#	98860
#	114621
#	130038
#	146562
#	161318
#	176859
#	192206
#	203057
#
# Disc length: 2909 seconds
#
# Revision: 0
# Processed by: cddbd v1.4PL0 Copyright (c) Steve Scherf et al.
# Submitted via: CdAid 2001.05.15.01
#
DISCID=c30b5b0f
DTITLE=Forró do Litoral - Vol - 2
DYEAR=1900
DGENRE=
TTITLE0=Abertura
TTITLE1=Bomba Relógio
TTITLE2=Diz que o Amor
TTITLE3=Cansei
TTITLE4=Bye Bye Tristeza
TTITLE5=Você e Eu
TTITLE6=Alô
TTITLE7=Conclusão
TTITLE8=Nossa História
TTITLE9=Dilema
TTITLE10=Não me Deixe
TTITLE11=Rosa sem Espinho
TTITLE12=Abusou de Mim
TTITLE13=Deusa do Amor
TTITLE14=Não dá Mais
EXTD=
EXTT0=
EXTT1=
EXTT2=
EXTT3=
EXTT4=
EXTT5=
EXTT6=
EXTT7=
EXTT8=
EXTT9=
EXTT10=
EXTT11=
EXTT12=
EXTT13=
EXTT14=
PLAYORDER=
